<svg width="512" height="512" viewBox="0 0 512 512" fill="none" xmlns="http://www.w3.org/2000/svg">
<path d="M342.863 224.917C336.838 224.292 332.46 218.9 333.086 212.875L344.809 99.98C345.435 93.956 350.826 89.579 356.85 90.204C362.875 90.829 367.253 96.221 366.627 102.246L354.904 215.141C354.278 221.165 348.888 225.542 342.863 224.917Z" fill="#AD5A58"/>
<path d="M348.666 238.351C342.488 237.991 337.826 232.622 338.367 226.456C340.464 202.538 346.902 146.541 363.105 114.504C367.075 106.654 374.735 101.455 383.657 100.773C390.226 100.271 396.69 102.714 401.791 106.884C438.668 137.029 471.826 155.669 493.187 158.718C498.207 159.434 502.039 163.528 502.483 168.579C503.095 175.555 497.09 181.425 490.159 180.424C455.377 175.401 411.82 143.483 387.212 123.298C386.339 122.584 385.436 122.591 384.834 122.713C384.291 122.827 383.29 123.198 382.682 124.405C368.293 152.855 362.244 205.79 360.241 228.353C359.715 234.27 354.596 238.697 348.666 238.351Z" fill="#DD8378"/>
<path d="M486.587 267.809C484.452 275.111 475.565 278.262 469.579 273.566C461.87 267.517 454.826 258.22 448.532 245.761C441.937 232.726 437.252 218.119 434.201 201.117C427.754 165.155 413.698 145.959 404.702 136.962C404.108 136.368 403.39 135.912 402.6 135.627C401.81 135.342 400.966 135.234 400.13 135.311C398.527 135.453 397.026 136.221 396.068 137.513C377.607 162.428 372.487 216.994 371.765 246.13C371.619 252.018 366.879 256.735 360.991 256.83C354.772 256.931 349.704 251.857 349.859 245.639C350.527 218.984 354.843 152.874 380.703 121.566C385.173 116.153 391.728 112.776 398.69 112.297C405.689 111.787 412.398 114.168 417.575 118.92C430.773 131.038 448.122 154.46 455.795 197.247C458.461 212.121 462.489 224.753 468.108 235.868C472.844 245.239 477.937 252.182 482.903 256.152C486.382 258.931 487.847 263.497 486.598 267.77L486.587 267.809Z" fill="#FFB7A5"/>
<path d="M348.906 249.921C352.457 219.253 363.153 60.21 209.272 22.261C173.576 13.458 135.839 17.407 103.503 34.903C80.76 47.211 56.421 66.909 40.332 98.225C15.993 145.598 18.861 203.015 47.811 247.718C70.748 283.135 113.828 318.487 194.402 318.228C194.402 318.228 255.214 316.63 292.743 316.456C299.31 316.427 305.75 314.644 311.397 311.292C317.044 307.94 321.693 303.14 324.864 297.389L345.927 259.21C347.516 256.338 348.528 253.182 348.906 249.921Z" fill="#A99FF1"/>
<path d="M305.69 100.131L299.035 91.685C295.385 87.0657 293.461 81.3176 293.596 75.432C293.661 72.4822 293.622 69.5311 293.48 66.584C275.018 48.946 250.744 34.214 218.943 24.894C221.704 25.71 224.421 26.558 227.076 27.45C227.979 40.285 221.809 51.801 211.247 55.11C198.398 59.135 183.94 49.496 178.954 33.579C177.271 28.207 176.909 22.817 177.627 17.865C151.974 16.96 126.387 22.524 103.505 34.905C84.5489 45.161 64.5019 60.58 49.0299 83.553C47.8299 106.538 53.8159 143.054 98.7199 161.254C98.7199 161.254 146.881 176.615 180.288 156.998C188.716 152.051 199.323 152.733 207.48 158.114L222.829 168.239C229.528 172.657 237.519 174.838 245.507 174.071C248.029 173.829 250.66 173.357 253.224 172.534C257.864 171.046 259.283 165.16 255.828 161.725L239.812 145.799C235.795 141.805 236.845 135.055 241.884 132.469L244.382 131.188C245.896 130.411 247.611 130.117 249.297 130.343C250.984 130.569 252.561 131.306 253.816 132.455L289.464 165.071C290.231 166.049 291.193 166.857 292.288 167.445C293.384 168.032 294.589 168.386 295.828 168.484C297.067 168.582 298.313 168.422 299.488 168.015C300.662 167.607 301.739 166.96 302.65 166.114C303.562 165.269 304.288 164.244 304.783 163.104C305.278 161.964 305.532 160.733 305.527 159.49C305.523 158.247 305.261 157.019 304.757 155.882C304.254 154.746 303.52 153.726 302.603 152.887L275.371 118.208C272.926 115.093 273.017 110.72 275.559 107.684L275.69 107.528C278.856 103.728 284.654 103.569 288.076 107.14L296.911 116.361C300.964 120.591 308.107 118.322 308.976 112.529C309.304 110.348 309.181 108.122 308.616 105.99C308.051 103.858 307.055 101.864 305.69 100.131ZM136.829 113.209C117.818 113.209 102.406 100.769 102.406 85.423C102.406 70.077 117.818 57.636 136.829 57.636C155.84 57.636 171.251 70.076 171.251 85.423C171.251 100.77 155.84 113.209 136.829 113.209ZM225.979 91.404C223.584 94.326 219.883 97.144 214.165 98.82C207.965 100.636 201.484 96.785 200.372 90.421C199.925 87.865 199.766 85.004 200.237 82.072C201.094 76.744 205.902 72.939 211.294 73.166C214.047 73.281 217.251 73.641 220.349 74.511C227.646 76.561 230.783 85.541 225.979 91.404ZM217.934 24.596C218.273 24.694 218.606 24.795 218.943 24.894C218.606 24.794 218.271 24.694 217.934 24.596ZM192.638 19.14C193.114 19.204 193.59 19.261 194.066 19.329C193.59 19.262 193.113 19.203 192.638 19.14ZM200.126 20.329C200.69 20.433 201.257 20.52 201.821 20.631C201.257 20.521 200.69 20.432 200.126 20.329Z" fill="#E0F2FF"/>
<path d="M250.625 37.037C258.946 60.731 273.559 112.172 265.705 163.938C260.127 200.712 239.078 233.258 208.689 254.705C183.369 272.576 145.33 292.233 97.843 295.394C121.765 309.152 153.162 318.361 194.402 318.228C194.402 318.228 255.214 316.63 292.743 316.456C299.31 316.426 305.75 314.643 311.397 311.291C317.044 307.939 321.693 303.14 324.864 297.389L345.927 259.209C347.517 256.337 348.529 253.182 348.906 249.921C352.103 222.318 361.061 90.736 250.625 37.037Z" fill="#696AAF"/>
<path d="M267.615 145.079L289.465 165.071C290.232 166.049 291.194 166.857 292.289 167.445C293.385 168.032 294.59 168.386 295.829 168.484C297.068 168.582 298.314 168.422 299.489 168.015C300.663 167.607 301.74 166.96 302.651 166.114C303.563 165.269 304.289 164.244 304.784 163.104C305.279 161.964 305.533 160.733 305.528 159.49C305.524 158.247 305.262 157.019 304.758 155.882C304.255 154.746 303.521 153.726 302.604 152.887L275.372 118.208C272.927 115.093 273.018 110.72 275.56 107.684L275.691 107.528C278.857 103.728 284.655 103.569 288.077 107.14L296.912 116.361C300.965 120.591 308.108 118.322 308.977 112.529C309.305 110.348 309.182 108.123 308.617 105.99C308.052 103.858 307.056 101.865 305.691 100.132L299.036 91.686C295.386 87.0667 293.463 81.3186 293.597 75.433C293.662 72.4832 293.623 69.5321 293.481 66.585C281.709 55.338 267.563 45.277 250.627 37.038C257.932 57.842 270.076 100.04 267.615 145.079Z" fill="#BBC9FC"/>
<path d="M384.518 325.547C384.518 325.547 391.046 347.582 418.939 352.339C422.811 353 425.713 348.803 423.756 345.398L410.65 322.59L384.518 325.547ZM430.991 287.423C430.991 287.423 450.812 293.238 455.155 318.297C455.758 321.776 451.994 324.395 448.927 322.645L428.395 310.918L430.991 287.423Z" fill="#C0DAFF"/>
<path d="M300.747 299.244C303.47 284.312 313.855 249.78 352.111 242.825C364.432 240.585 378.046 240.113 391.518 244.51C406.622 249.439 426.808 260.285 436.443 282.474C441.174 293.371 436.476 308.591 428.093 317.01C417.305 327.847 396.299 339.231 356.905 333.701C356.905 333.701 322.241 328.9 304.779 312.005C301.383 308.718 299.899 303.895 300.747 299.244Z" fill="#A99FF1"/>
<path d="M436.443 282.473C426.808 260.285 406.623 249.439 391.518 244.51C383.019 241.737 374.466 240.906 366.215 241.23C380.295 252.876 393.305 327.161 322.265 323.438C338.872 331.174 356.906 333.702 356.906 333.702C396.3 339.231 417.305 327.848 428.094 317.011C436.477 308.592 441.175 293.371 436.443 282.473Z" fill="#696AAF"/>
<path d="M389.461 321.589C396.29 321.589 401.826 316.053 401.826 309.224C401.826 302.395 396.29 296.859 389.461 296.859C382.632 296.859 377.096 302.395 377.096 309.224C377.096 316.053 382.632 321.589 389.461 321.589Z" fill="white"/>
<path d="M418.447 301.221C424.473 301.221 429.359 296.336 429.359 290.309C429.359 284.282 424.473 279.397 418.447 279.397C412.42 279.397 407.535 284.282 407.535 290.309C407.535 296.336 412.42 301.221 418.447 301.221Z" fill="white"/>
<path d="M356.072 302.042C359.503 302.042 362.284 299.261 362.284 295.83C362.284 292.399 359.503 289.618 356.072 289.618C352.641 289.618 349.86 292.399 349.86 295.83C349.86 299.261 352.641 302.042 356.072 302.042Z" fill="white"/>
<path d="M407.536 270.508C410.227 270.508 412.409 268.326 412.409 265.635C412.409 262.944 410.227 260.762 407.536 260.762C404.845 260.762 402.663 262.944 402.663 265.635C402.663 268.326 404.845 270.508 407.536 270.508Z" fill="white"/>
<path d="M9.5459 318.073C9.22269 315.278 9.99167 312.465 11.6923 310.224C13.393 307.982 15.8939 306.483 18.6729 306.041C57.1749 299.895 114.162 252.172 134.555 232.525C142.994 224.687 152.638 218.256 163.118 213.477C178.36 206.511 195.23 205.672 210.622 211.103C259.505 228.376 279.82 285.347 286.495 310.157C288.167 316.373 284.18 322.672 277.848 323.826C275.139 324.322 272.342 323.781 270.013 322.312C267.684 320.843 265.991 318.552 265.271 315.894C259.502 294.723 242.192 245.524 203.314 231.79C193.463 228.309 182.131 228.909 172.236 233.429C163.876 237.25 156.269 242.309 149.622 248.471C141.636 256.166 74.8409 319.161 22.0389 327.678C15.9219 328.664 10.2519 324.227 9.5459 318.073Z" fill="#AD5A58"/>
<path d="M73.8621 417.182C72.8401 412.584 74.9071 407.889 78.9691 405.506C109.63 387.526 152.384 300.233 173.702 245.09C177.701 234.183 182.682 224.407 188.441 216.213C201.326 197.868 226.017 192.963 244.645 205.034C282.254 229.421 296.838 289.121 301.461 314.438C302.6 320.677 298.262 326.574 291.964 327.33C289.191 327.667 286.395 326.932 284.145 325.277C281.895 323.622 280.361 321.171 279.857 318.424C275.741 296.075 262.308 244.407 231.977 224.743C223.291 219.109 212.461 220.176 206.391 228.823C201.728 235.457 197.637 243.529 194.23 252.823C188.194 268.437 138.457 394.101 90.0171 424.132C83.7301 428.03 75.4671 424.404 73.8621 417.182Z" fill="#DD8378"/>
<path d="M192.607 490.936C189.168 487.373 188.482 481.897 191.147 477.723C210.387 447.588 220.203 361.573 222.796 292.78C223.092 284.896 223.739 277.799 224.774 271.09C228.152 249.188 234.747 232.428 244.396 221.206C249.314 215.487 255.904 211.279 263.398 210.417C275.757 208.996 287.209 215.67 292.382 226.411C303.824 250.178 311.156 297.58 314.259 316.61C315.257 322.724 311.027 328.455 304.886 329.276C299.005 330.062 293.565 326.064 292.605 320.209C289.67 302.291 282.788 257.053 272.617 235.93C271.259 233.106 268.766 232.417 267.758 232.249C266.589 232.063 264.345 232.031 262.426 233.984C257.156 239.361 250.109 250.743 246.453 274.432C245.551 280.298 244.982 286.572 244.719 293.605C242.959 340.243 236.102 445.978 209.769 489.023C206.037 495.121 197.574 496.08 192.607 490.936Z" fill="#FFB7A5"/>
</svg>
