<svg width="512" height="512" viewBox="0 0 512 512" fill="none" xmlns="http://www.w3.org/2000/svg">
<path d="M256 372.005C255.015 372.006 254.039 371.813 253.129 371.436C252.219 371.059 251.393 370.506 250.697 369.809C235.58 354.609 217.599 342.559 197.795 334.355C177.99 326.152 156.755 321.958 135.318 322.017C134.333 322.017 133.358 321.823 132.448 321.446C131.538 321.069 130.711 320.516 130.015 319.82C129.318 319.124 128.766 318.297 128.389 317.387C128.012 316.477 127.818 315.502 127.818 314.517C127.877 293.08 123.683 271.845 115.479 252.041C107.276 232.236 95.2261 214.255 80.027 199.139C79.3305 198.442 78.778 197.615 78.401 196.705C78.0241 195.795 77.8301 194.82 77.8301 193.835C77.8301 192.85 78.0241 191.875 78.401 190.965C78.778 190.055 79.3305 189.228 80.027 188.531C95.2262 173.415 107.276 155.434 115.48 135.629C123.683 115.824 127.877 94.5888 127.818 73.1523C127.818 72.1674 128.012 71.1921 128.389 70.2822C128.766 69.3722 129.318 68.5454 130.015 67.8489C130.711 67.1525 131.538 66.6001 132.448 66.2232C133.358 65.8463 134.333 65.6523 135.318 65.6523C156.754 65.7109 177.99 61.5172 197.794 53.3139C217.599 45.1105 235.58 33.0605 250.697 17.8613C252.104 16.4553 254.011 15.6655 256 15.6655C257.989 15.6655 259.897 16.4553 261.303 17.8613C276.42 33.0605 294.401 45.1105 314.206 53.3139C334.011 61.5172 355.246 65.7109 376.682 65.6523C377.667 65.6523 378.642 65.8463 379.552 66.2232C380.462 66.6001 381.289 67.1525 381.986 67.8489C382.682 68.5454 383.234 69.3722 383.611 70.2822C383.988 71.1921 384.182 72.1674 384.182 73.1523C384.124 94.5888 388.317 115.824 396.521 135.629C404.724 155.434 416.774 173.415 431.973 188.531C432.67 189.228 433.222 190.055 433.599 190.965C433.976 191.875 434.17 192.85 434.17 193.835C434.17 194.82 433.976 195.795 433.599 196.705C433.222 197.615 432.67 198.442 431.973 199.139C416.774 214.255 404.724 232.236 396.521 252.041C388.317 271.845 384.124 293.08 384.182 314.517C384.182 315.502 383.988 316.477 383.611 317.387C383.234 318.297 382.682 319.124 381.986 319.82C381.289 320.516 380.462 321.069 379.552 321.446C378.642 321.823 377.667 322.017 376.682 322.017C355.246 321.958 334.01 326.152 314.206 334.355C294.401 342.559 276.42 354.609 261.303 369.809C260.608 370.506 259.781 371.059 258.871 371.436C257.961 371.813 256.985 372.006 256 372.005ZM142.67 307.164C184.84 308.78 225.039 325.432 256 354.107C286.961 325.432 327.161 308.78 369.33 307.164C370.946 264.995 387.597 224.796 416.273 193.835C387.597 162.874 370.946 122.674 369.33 80.5049C327.161 78.8888 286.961 62.2378 256 33.5625C225.039 62.2378 184.839 78.8888 142.67 80.5049C141.054 122.674 124.403 162.874 95.7276 193.835C124.403 224.796 141.054 264.995 142.67 307.164Z" fill="#EEEEEE"/>
<path d="M256 319.984C254.463 319.985 252.962 319.512 251.703 318.631C227.477 301.735 199.872 290.3 170.795 285.117C169.281 284.849 167.886 284.123 166.799 283.036C165.712 281.949 164.985 280.554 164.717 279.04C162.139 264.543 157.993 250.368 152.353 236.767C146.723 223.161 139.632 210.207 131.204 198.133C130.323 196.873 129.851 195.373 129.851 193.835C129.851 192.298 130.323 190.798 131.204 189.538C139.632 177.463 146.723 164.509 152.353 150.902C157.993 137.301 162.139 123.127 164.717 108.63C164.985 107.116 165.712 105.721 166.799 104.634C167.886 103.547 169.281 102.821 170.795 102.553C185.292 99.9733 199.466 95.8269 213.068 90.1865C226.674 84.5577 239.629 77.4669 251.703 69.039C252.963 68.158 254.463 67.6855 256 67.6855C257.537 67.6855 259.038 68.158 260.297 69.039C272.372 77.4668 285.326 84.5579 298.932 90.1875C312.534 95.8276 326.708 99.9736 341.206 102.553C342.719 102.821 344.114 103.547 345.201 104.634C346.288 105.721 347.015 107.116 347.283 108.63C352.465 137.707 363.9 165.311 380.796 189.536C381.677 190.796 382.15 192.296 382.15 193.833C382.15 195.371 381.677 196.871 380.797 198.131C363.9 222.357 352.466 249.962 347.283 279.04C347.015 280.554 346.288 281.948 345.201 283.035C344.114 284.122 342.719 284.849 341.206 285.117C312.128 290.3 284.523 301.734 260.297 318.631C259.038 319.512 257.538 319.985 256 319.984ZM178.519 271.316C206.17 276.929 232.479 287.826 256 303.41C279.521 287.826 305.829 276.929 333.481 271.316C339.094 243.664 349.991 217.356 365.575 193.834C349.99 170.313 339.093 144.005 333.482 116.354C319.687 113.557 306.194 109.435 293.192 104.045C280.187 98.6621 267.732 92.0363 256 84.2598C244.268 92.0362 231.813 98.6623 218.808 104.046C205.805 109.435 192.313 113.556 178.518 116.354C175.722 130.148 171.6 143.64 166.211 156.643C160.827 169.648 154.201 182.103 146.424 193.835C154.201 205.567 160.828 218.021 166.211 231.026C171.6 244.029 175.722 257.522 178.519 271.316Z" fill="#EEEEEE"/>
<path d="M256 272.969C254.739 272.969 253.499 272.651 252.394 272.045C236.8 263.494 220.32 256.668 203.247 251.689C202.037 251.336 200.935 250.683 200.043 249.792C199.152 248.9 198.499 247.798 198.146 246.588C195.657 238.058 192.707 229.669 189.308 221.459C185.906 213.251 182.061 205.233 177.79 197.441C177.183 196.336 176.865 195.096 176.865 193.835C176.865 192.574 177.183 191.334 177.79 190.229C182.061 182.437 185.906 174.419 189.308 166.21C192.707 158 195.657 149.612 198.146 141.082C198.499 139.872 199.152 138.77 200.043 137.878C200.935 136.987 202.037 136.334 203.247 135.982C211.777 133.492 220.165 130.541 228.375 127.143C236.584 123.741 244.602 119.895 252.394 115.624C253.499 115.018 254.739 114.7 256 114.7C257.261 114.7 258.501 115.018 259.606 115.624C267.399 119.895 275.417 123.741 283.626 127.144C291.836 130.542 300.223 133.492 308.752 135.981C309.963 136.334 311.065 136.987 311.957 137.879C312.848 138.77 313.501 139.872 313.854 141.083C318.831 158.156 325.657 174.635 334.21 190.227C334.817 191.332 335.135 192.573 335.135 193.833C335.135 195.094 334.817 196.335 334.21 197.44C325.659 213.034 318.833 229.514 313.854 246.588C313.501 247.798 312.848 248.9 311.957 249.792C311.065 250.683 309.963 251.336 308.752 251.689C291.679 256.667 275.2 263.493 259.607 272.045C258.501 272.651 257.261 272.969 256 272.969ZM211.369 238.466C219.058 240.842 226.691 243.595 234.114 246.668C241.531 249.74 248.876 253.191 256 256.952C263.117 253.194 270.461 249.743 277.884 246.669C285.309 243.594 292.944 240.841 300.631 238.466C303.009 230.77 305.762 223.135 308.835 215.718C311.909 208.295 315.36 200.951 319.118 193.834C315.361 186.721 311.91 179.376 308.833 171.949C305.757 164.522 303.005 156.89 300.631 149.204C292.945 146.829 285.312 144.077 277.885 141.002C270.461 137.926 263.117 134.474 256 130.717C248.883 134.474 241.539 137.926 234.115 141C226.695 144.074 219.061 146.827 211.369 149.204C208.993 156.894 206.24 164.527 203.166 171.95C200.091 179.373 196.64 186.718 192.882 193.835C196.64 200.953 200.092 208.298 203.166 215.719C206.24 223.141 208.993 230.774 211.369 238.466Z" fill="#EEEEEE"/>
<path d="M256 387.669C255.015 387.669 254.04 387.475 253.13 387.098C252.22 386.721 251.393 386.169 250.697 385.472C250 384.776 249.448 383.949 249.071 383.039C248.694 382.129 248.5 381.154 248.5 380.169V7.5C248.5 5.51088 249.29 3.60322 250.697 2.1967C252.103 0.790176 254.011 0 256 0C257.989 0 259.897 0.790176 261.303 2.1967C262.71 3.60322 263.5 5.51088 263.5 7.5V380.169C263.5 381.154 263.306 382.129 262.929 383.039C262.552 383.949 262 384.776 261.303 385.472C260.607 386.169 259.78 386.721 258.87 387.098C257.96 387.475 256.985 387.669 256 387.669Z" fill="#DEDEDE"/>
<path d="M387.758 333.093C386.773 333.094 385.798 332.901 384.888 332.524C383.977 332.147 383.151 331.594 382.455 330.896L118.938 67.3799C118.242 66.6834 117.689 65.8566 117.313 64.9467C116.936 64.0367 116.742 63.0614 116.741 62.0765C116.741 61.0916 116.935 60.1163 117.312 59.2063C117.689 58.2963 118.242 57.4694 118.938 56.7729C119.634 56.0764 120.461 55.5239 121.371 55.147C122.281 54.77 123.256 54.576 124.241 54.5759C125.226 54.5759 126.202 54.7698 127.112 55.1467C128.022 55.5236 128.848 56.076 129.545 56.7724L393.062 320.289C394.111 321.338 394.825 322.674 395.114 324.129C395.404 325.584 395.255 327.092 394.688 328.463C394.12 329.833 393.159 331.005 391.925 331.829C390.692 332.653 389.242 333.093 387.758 333.093Z" fill="#DEDEDE"/>
<path d="M442.334 201.335H69.6655C67.6764 201.335 65.7687 200.545 64.3622 199.138C62.9557 197.732 62.1655 195.824 62.1655 193.835C62.1655 191.846 62.9557 189.938 64.3622 188.532C65.7687 187.125 67.6764 186.335 69.6655 186.335H442.334C444.324 186.335 446.231 187.125 447.638 188.532C449.044 189.938 449.834 191.846 449.834 193.835C449.834 195.824 449.044 197.732 447.638 199.138C446.231 200.545 444.324 201.335 442.334 201.335Z" fill="#DEDEDE"/>
<path d="M124.242 333.093C122.758 333.093 121.308 332.653 120.075 331.829C118.841 331.005 117.88 329.833 117.312 328.463C116.745 327.092 116.596 325.584 116.886 324.129C117.175 322.674 117.89 321.338 118.939 320.289L382.455 56.7724C383.862 55.3659 385.77 54.5758 387.759 54.5759C389.748 54.576 391.656 55.3663 393.062 56.7729C394.469 58.1796 395.259 60.0873 395.259 62.0765C395.259 64.0657 394.468 65.9734 393.062 67.3799L129.545 330.896C128.849 331.594 128.023 332.147 127.113 332.524C126.202 332.901 125.227 333.094 124.242 333.093Z" fill="#DEDEDE"/>
</svg>
