<svg width="24" height="19" viewBox="0 0 24 19" fill="none" xmlns="http://www.w3.org/2000/svg">
<path d="M4.491 5.44298e-05C4.4169 0.00103637 4.34395 0.0184768 4.27742 0.0511142C4.21089 0.0837515 4.15244 0.13077 4.10631 0.188767C4.06018 0.246764 4.02752 0.314289 4.01069 0.386458C3.99386 0.458627 3.99329 0.533635 4.009 0.606054L5.013 5.59805C5.03097 5.68817 5.07342 5.77158 5.13569 5.83915C5.19796 5.90672 5.27765 5.95581 5.366 5.98105L8.933 7.00105H4.499C4.39127 7.00098 4.2864 7.0357 4.2 7.10005L0.200002 10.1001C0.0939156 10.1796 0.0237809 10.2981 0.00502728 10.4293C-0.0137264 10.5606 0.0204373 10.694 0.100002 10.8001C0.179567 10.9061 0.298016 10.9763 0.429291 10.995C0.560567 11.0138 0.693916 10.9796 0.800002 10.9001L4.667 8.00006H8.688C8.635 8.03606 8.584 8.07405 8.532 8.11105L8.312 8.17605L5.362 9.01805C5.28409 9.04046 5.21279 9.08148 5.15426 9.13758C5.09572 9.19368 5.05171 9.26316 5.026 9.34005L2.026 18.3421C2.00525 18.4044 1.99699 18.4703 2.0017 18.5359C2.0064 18.6014 2.02397 18.6654 2.0534 18.7242C2.08284 18.783 2.12357 18.8354 2.17325 18.8784C2.22294 18.9215 2.28062 18.9543 2.343 18.9751C2.46898 19.017 2.60644 19.0071 2.72515 18.9477C2.84387 18.8882 2.9341 18.784 2.976 18.6581L5.892 9.90605L7.085 9.56505C6.51907 10.3712 6.16175 11.305 6.045 12.2831C5.99166 12.3948 5.98168 12.5224 6.017 12.6411C6.009 12.7611 5.999 12.8791 5.999 13.0011C5.999 13.8371 6.172 14.6331 6.483 15.3581C6.49897 15.4111 6.52364 15.4611 6.556 15.5061C7.508 17.5641 9.586 19.0001 11.999 19.0001C14.391 19.0001 16.454 17.5891 17.417 15.5591C17.4177 15.5584 17.4183 15.5577 17.419 15.5571C17.486 15.4821 17.5289 15.3887 17.542 15.2891C17.8438 14.5637 17.9991 13.7857 17.999 13.0001C17.999 12.8811 17.989 12.7641 17.981 12.6471C18.0189 12.5244 18.0081 12.392 17.951 12.2771C17.829 11.2771 17.464 10.3521 16.911 9.56505L18.108 9.90605L21.024 18.6581C21.0659 18.784 21.1561 18.8882 21.2748 18.9477C21.3936 19.0071 21.531 19.017 21.657 18.9751C21.783 18.9331 21.8872 18.8429 21.9466 18.7242C22.006 18.6055 22.0159 18.468 21.974 18.3421L18.974 9.34005C18.9483 9.26316 18.9043 9.19368 18.8457 9.13758C18.7872 9.08148 18.7159 9.04046 18.638 9.01805L15.55 8.13505C15.5252 8.12708 15.4998 8.12106 15.474 8.11705C15.419 8.07805 15.366 8.03706 15.309 8.00006H19.327L23.194 10.9001C23.2465 10.9395 23.3063 10.9681 23.3699 10.9844C23.4335 11.0007 23.4997 11.0043 23.5647 10.995C23.6297 10.9857 23.6922 10.9637 23.7487 10.9303C23.8052 10.8968 23.8546 10.8526 23.894 10.8001C23.9334 10.7475 23.9621 10.6878 23.9784 10.6241C23.9947 10.5605 23.9983 10.4943 23.989 10.4293C23.9797 10.3643 23.9577 10.3018 23.9242 10.2453C23.8908 10.1888 23.8465 10.1395 23.794 10.1001L19.794 7.10005C19.708 7.03463 19.6031 6.99885 19.495 6.99805H15.073L18.633 5.98105C18.7215 5.95597 18.8014 5.90694 18.8639 5.83937C18.9264 5.77179 18.969 5.68829 18.987 5.59805L19.989 0.606054C20.005 0.53248 20.0041 0.456249 19.9865 0.38305C19.9689 0.30985 19.935 0.241572 19.8873 0.183312C19.8396 0.125051 19.7794 0.0783105 19.7111 0.046579C19.6428 0.0148474 19.5683 -0.00105636 19.493 5.44298e-05C19.3776 0.00177894 19.2664 0.0433455 19.1782 0.117707C19.09 0.192068 19.0302 0.294648 19.009 0.408054L18.067 5.10205L15.537 5.82605C15.822 5.27605 15.999 4.66205 15.999 4.00005C15.999 1.79705 14.202 5.44298e-05 11.999 5.44298e-05C9.796 5.44298e-05 7.999 1.79705 7.999 4.00005C7.999 4.66105 8.176 5.27405 8.462 5.82405L5.932 5.10205L4.989 0.408054C4.96734 0.292287 4.90551 0.187881 4.8144 0.113241C4.7233 0.0386003 4.60877 -0.00148348 4.491 5.44298e-05ZM11.999 1.00005C13.662 1.00005 14.999 2.33705 14.999 4.00005C15.0009 4.79263 14.6881 5.55353 14.1293 6.11565C13.5706 6.67777 12.8116 6.99514 12.019 6.99805H11.995V7.00005C11.6011 7.00045 11.211 6.92309 10.8471 6.77242C10.4832 6.62175 10.1525 6.40072 9.87421 6.12201C9.59588 5.84331 9.37529 5.5124 9.2251 5.14827C9.07492 4.78414 8.99808 4.39394 8.999 4.00005C8.999 2.33705 10.336 1.00005 11.999 1.00005ZM10.499 1.99805C10.3664 1.99805 10.2392 2.05073 10.1454 2.1445C10.0517 2.23827 9.999 2.36545 9.999 2.49805C9.999 2.63066 10.0517 2.75784 10.1454 2.85161C10.2392 2.94538 10.3664 2.99805 10.499 2.99805C10.6316 2.99805 10.7588 2.94538 10.8526 2.85161C10.9463 2.75784 10.999 2.63066 10.999 2.49805C10.999 2.36545 10.9463 2.23827 10.8526 2.1445C10.7588 2.05073 10.6316 1.99805 10.499 1.99805ZM13.499 1.99805C13.3664 1.99805 13.2392 2.05073 13.1454 2.1445C13.0517 2.23827 12.999 2.36545 12.999 2.49805C12.999 2.63066 13.0517 2.75784 13.1454 2.85161C13.2392 2.94538 13.3664 2.99805 13.499 2.99805C13.6316 2.99805 13.7588 2.94538 13.8526 2.85161C13.9463 2.75784 13.999 2.63066 13.999 2.49805C13.999 2.36545 13.9463 2.23827 13.8526 2.1445C13.7588 2.05073 13.6316 1.99805 13.499 1.99805ZM11.995 8.00006H11.999C14.219 8.00006 16.075 9.44705 16.729 11.4451L14.456 10.0671C14.3635 10.0114 14.2555 9.98711 14.148 9.99793C14.0406 10.0087 13.9395 10.054 13.86 10.1271L11.999 11.8201L10.139 10.1271C10.0896 10.0819 10.0317 10.0472 9.96867 10.0249C9.90564 10.0025 9.83876 9.99308 9.772 9.99705C9.69147 10.0017 9.61324 10.0257 9.544 10.0671L7.268 11.4471C7.922 9.44905 9.775 8.00206 11.995 8.00006ZM9.743 11.1151L11.663 12.8631C11.7551 12.9471 11.8753 12.9937 12 12.9937C12.1247 12.9937 12.2449 12.9471 12.337 12.8631L14.257 11.1151L16.987 12.7721C16.991 12.8481 16.999 12.9231 16.999 13.0001C16.999 13.5141 16.899 13.9971 16.757 14.4631L14.456 13.0671C14.3635 13.0114 14.2555 12.9871 14.148 12.9979C14.0406 13.0087 13.9395 13.054 13.86 13.1271L11.999 14.8201L10.139 13.1271C10.0896 13.0819 10.0317 13.0472 9.96867 13.0249C9.90564 13.0025 9.83876 12.9931 9.772 12.9971C9.69147 13.0017 9.61324 13.0257 9.544 13.0671L7.241 14.4631C7.08741 13.9903 7.00583 13.4971 6.999 13.0001C6.999 12.9241 7.007 12.8491 7.011 12.7741L9.743 11.1151ZM9.743 14.1151L11.663 15.8631C11.7551 15.9471 11.8753 15.9937 12 15.9937C12.1247 15.9937 12.2449 15.9471 12.337 15.8631L14.257 14.1151L16.364 15.3951C15.515 16.9411 13.892 18.0001 11.999 18.0001C10.106 18.0001 8.483 16.9411 7.634 15.3951L9.743 14.1151Z" fill="#FFE901"/>
</svg>
