<svg width="507" height="670" viewBox="0 0 507 670" fill="none" xmlns="http://www.w3.org/2000/svg">
<path d="M497.191 243.832H480.837C443.376 205.132 422.047 153.611 421.187 99.742L432.752 88.171C434.59 86.33 435.622 83.8341 435.621 81.232C435.62 78.6299 434.587 76.1347 432.748 74.2947C430.909 72.4548 428.415 71.4208 425.814 71.42C423.214 71.4192 420.719 72.4517 418.879 74.2905L407.315 85.8615C353.476 85.0018 301.985 63.6612 263.308 26.1777V9.81424C263.308 7.21134 262.275 4.71505 260.435 2.87453C258.596 1.034 256.101 0 253.499 0C250.898 0 248.403 1.034 246.564 2.87453C244.724 4.71505 243.691 7.21134 243.691 9.81424V26.1777C205.014 63.6613 153.523 85.0018 99.685 85.8615L88.1205 74.2905C86.2805 72.4517 83.7861 71.4192 81.1855 71.42C78.5849 71.4208 76.0911 72.4548 74.2522 74.2947C72.4133 76.1347 71.3799 78.6299 71.3791 81.232C71.3783 83.8341 72.4102 86.33 74.248 88.171L85.8124 99.7421C84.9531 153.612 63.6243 205.133 26.1614 243.832H9.80863C7.20722 243.832 4.71236 244.866 2.87288 246.706C1.03341 248.547 0 251.043 0 253.646C0 256.249 1.03341 258.745 2.87288 260.586C4.71236 262.426 7.20722 263.46 9.80863 263.46H26.1614C63.6239 302.159 84.9527 353.679 85.8124 407.548L74.248 419.119C72.4102 420.96 71.3783 423.456 71.3791 426.058C71.3799 428.66 72.4133 431.156 74.2522 432.996C76.0911 434.836 78.5849 435.87 81.1855 435.87C83.7861 435.871 86.2805 434.839 88.1205 433L99.685 421.429C111.024 421.632 122.328 422.73 133.494 424.713V486.983C126.127 488.922 119.443 492.871 114.188 498.389C111.825 490.012 112.203 481.099 115.267 472.952C116.199 470.522 116.128 467.821 115.07 465.443C114.012 463.065 112.053 461.205 109.624 460.273C107.195 459.34 104.496 459.411 102.12 460.47C99.743 461.528 97.8843 463.488 96.9521 465.918C94.2815 472.88 89.0286 491.176 97.8755 510.661C99.2534 513.685 100.904 516.576 102.807 519.299C101.934 522.938 101.495 526.668 101.497 530.41C101.497 531.56 101.552 532.697 101.632 533.826C100.053 533.032 98.5506 532.093 97.1449 531.021C91.5554 526.666 87.7176 520.445 86.3324 513.493C86.0874 512.227 85.5953 511.021 84.8841 509.945C84.173 508.869 83.2569 507.944 82.1881 507.223C81.1194 506.501 79.919 505.998 78.6556 505.741C77.3922 505.484 76.0906 505.479 74.8252 505.726C73.5598 505.973 72.3555 506.467 71.2811 507.18C70.2067 507.893 69.2834 508.811 68.5638 509.881C67.8443 510.951 67.3427 512.153 67.0877 513.418C66.8328 514.682 66.8294 515.984 67.0779 517.25C69.4103 528.904 75.8559 539.328 85.2366 546.619C92.2151 551.933 100.502 555.255 109.217 556.232C110.885 558.745 112.804 561.081 114.946 563.203C112.948 567.685 111.915 572.537 111.915 577.444C111.915 578.008 111.929 578.569 111.956 579.126C101.086 589.99 93.3329 603.576 89.5063 618.464C89.1833 619.712 89.1094 621.012 89.2887 622.289C89.4681 623.566 89.8973 624.795 90.5517 625.906C91.2061 627.017 92.0729 627.988 93.1026 628.764C94.1323 629.54 95.3047 630.105 96.5527 630.427C97.8008 630.749 99.1 630.822 100.376 630.641C101.652 630.46 102.88 630.03 103.99 629.374C105.1 628.718 106.07 627.85 106.844 626.819C107.618 625.788 108.182 624.615 108.503 623.366C110.707 614.792 114.604 606.746 119.965 599.702C122.817 603.193 126.416 605.999 130.495 607.915C134.574 609.83 139.03 610.807 143.536 610.772C148.042 610.738 152.483 609.693 156.532 607.715C160.581 605.737 164.136 602.876 166.935 599.342C172.445 606.466 176.442 614.641 178.682 623.366C179.002 624.615 179.565 625.79 180.339 626.821C181.113 627.853 182.083 628.722 183.193 629.378C184.303 630.034 185.532 630.465 186.808 630.646C188.085 630.827 189.385 630.754 190.633 630.432C191.882 630.11 193.054 629.545 194.084 628.768C195.114 627.992 195.981 627.021 196.636 625.909C197.29 624.798 197.719 623.568 197.898 622.29C198.077 621.013 198.002 619.712 197.678 618.464C193.783 603.314 185.825 589.517 174.664 578.563C174.676 578.19 174.691 577.819 174.691 577.444C174.69 572.538 173.658 567.686 171.661 563.205C173.803 561.082 175.722 558.746 177.39 556.233C186.11 555.258 194.402 551.936 201.385 546.619C210.763 539.328 217.208 528.905 219.545 517.254C220.044 514.7 219.508 512.051 218.055 509.892C216.603 507.732 214.352 506.239 211.799 505.74C209.246 505.24 206.599 505.776 204.441 507.23C202.283 508.683 200.79 510.935 200.291 513.489C198.904 520.442 195.065 526.664 189.475 531.021C188.067 532.096 186.561 533.035 184.976 533.827C185.057 532.698 185.111 531.561 185.111 530.41C185.11 527.194 184.783 523.987 184.135 520.837C185.809 518.406 187.304 515.856 188.607 513.207C198.323 493.292 194.143 473.963 191.895 466.577C191.52 465.344 190.906 464.197 190.088 463.201C189.269 462.206 188.263 461.381 187.127 460.775C185.99 460.169 184.745 459.792 183.463 459.667C182.181 459.542 180.887 459.671 179.655 460.047C178.423 460.422 177.276 461.036 176.282 461.855C175.287 462.674 174.463 463.681 173.857 464.818C173.251 465.955 172.874 467.201 172.75 468.483C172.625 469.766 172.753 471.061 173.129 472.294C175.782 481.051 175.789 490.399 173.146 499.16C167.787 493.246 160.827 489.016 153.112 486.982V429.166C187.161 438.656 218.298 456.513 243.691 481.114V497.476C243.691 500.079 244.724 502.575 246.564 504.416C248.403 506.256 250.898 507.29 253.499 507.29C256.101 507.29 258.596 506.256 260.435 504.416C262.275 502.575 263.308 500.079 263.308 497.476V481.114C282.498 462.543 305.01 447.75 329.667 437.508V526.24C322.3 528.179 315.616 532.128 310.361 537.646C307.998 529.269 308.375 520.356 311.439 512.209C312.371 509.779 312.301 507.078 311.242 504.7C310.184 502.322 308.225 500.462 305.797 499.53C303.368 498.597 300.669 498.668 298.292 499.727C295.916 500.785 294.057 502.745 293.125 505.175C290.454 512.137 285.201 530.433 294.048 549.918C295.426 552.942 297.076 555.833 298.979 558.556C298.107 562.195 297.667 565.925 297.67 569.667C297.67 570.818 297.724 571.954 297.804 573.083C296.225 572.289 294.723 571.35 293.317 570.278C287.728 565.923 283.89 559.702 282.505 552.75C282.26 551.484 281.768 550.278 281.057 549.202C280.346 548.126 279.429 547.201 278.361 546.48C277.292 545.758 276.091 545.255 274.828 544.998C273.565 544.741 272.263 544.736 270.998 544.983C269.732 545.23 268.528 545.724 267.454 546.437C266.379 547.15 265.456 548.068 264.736 549.138C264.017 550.208 263.515 551.41 263.26 552.675C263.005 553.939 263.002 555.241 263.25 556.507C265.583 568.161 272.028 578.585 281.409 585.876C288.388 591.19 296.675 594.512 305.39 595.489C307.057 598.002 308.977 600.338 311.119 602.46C309.121 606.942 308.088 611.794 308.088 616.701C308.088 617.265 308.101 617.826 308.128 618.383C297.259 629.247 289.505 642.833 285.679 657.721C285.356 658.969 285.282 660.269 285.461 661.546C285.641 662.823 286.07 664.052 286.724 665.163C287.379 666.274 288.245 667.245 289.275 668.021C290.305 668.797 291.477 669.362 292.725 669.684C293.973 670.006 295.273 670.079 296.549 669.898C297.825 669.717 299.053 669.287 300.163 668.631C301.273 667.975 302.242 667.107 303.017 666.076C303.791 665.045 304.355 663.872 304.675 662.623C306.88 654.049 310.777 646.003 316.138 638.959C318.99 642.45 322.588 645.256 326.667 647.172C330.746 649.087 335.202 650.064 339.708 650.029C344.214 649.995 348.655 648.95 352.704 646.972C356.754 644.994 360.308 642.133 363.107 638.599C368.617 645.723 372.615 653.898 374.854 662.623C375.174 663.872 375.738 665.046 376.512 666.078C377.286 667.11 378.256 667.979 379.366 668.635C380.476 669.291 381.704 669.722 382.981 669.903C384.257 670.084 385.557 670.011 386.806 669.689C388.054 669.367 389.227 668.802 390.257 668.025C391.287 667.249 392.154 666.278 392.808 665.166C393.462 664.055 393.891 662.825 394.07 661.547C394.249 660.27 394.175 658.969 393.851 657.721C389.955 642.571 381.997 628.774 370.836 617.82C370.848 617.447 370.863 617.076 370.863 616.701C370.863 611.795 369.831 606.943 367.834 602.462C369.976 600.34 371.895 598.003 373.562 595.49C382.282 594.515 390.575 591.193 397.557 585.876C406.935 578.585 413.381 568.162 415.717 556.511C415.964 555.246 415.96 553.945 415.704 552.682C415.449 551.419 414.947 550.218 414.228 549.149C413.509 548.08 412.586 547.163 411.513 546.45C410.439 545.738 409.236 545.244 407.972 544.997C406.708 544.749 405.407 544.754 404.145 545.009C402.882 545.265 401.682 545.767 400.614 546.487C399.545 547.206 398.629 548.13 397.917 549.204C397.205 550.278 396.711 551.481 396.464 552.746C395.076 559.699 391.238 565.921 385.648 570.278C384.239 571.353 382.733 572.292 381.149 573.084C381.229 571.955 381.283 570.818 381.283 569.667C381.282 566.451 380.955 563.244 380.307 560.094C381.982 557.663 383.476 555.113 384.779 552.464C394.496 532.549 390.316 513.22 388.068 505.834C387.31 503.344 385.595 501.257 383.299 500.032C381.004 498.807 378.316 498.545 375.827 499.303C373.339 500.062 371.253 501.778 370.029 504.075C368.805 506.372 368.543 509.061 369.301 511.551C371.955 520.308 371.961 529.656 369.319 538.417C363.959 532.503 356.999 528.273 349.284 526.239V430.499C368.119 424.82 387.646 421.768 407.315 421.429L418.879 433C420.719 434.839 423.214 435.871 425.814 435.87C428.415 435.87 430.909 434.836 432.748 432.996C434.587 431.156 435.62 428.66 435.621 426.058C435.622 423.456 434.59 420.96 432.752 419.119L421.187 407.548C422.047 353.679 443.376 302.159 480.837 263.46H497.191C499.793 263.46 502.288 262.426 504.127 260.586C505.967 258.745 507 256.249 507 253.646C507 251.043 505.967 248.547 504.127 246.706C502.288 244.866 499.793 243.832 497.191 243.832ZM143.303 591.145C136.812 591.145 131.533 584.999 131.533 577.444C131.532 576.091 131.705 574.743 132.049 573.435C139.389 575.646 147.217 575.646 154.557 573.435C154.901 574.744 155.074 576.091 155.073 577.444C155.073 584.999 149.794 591.145 143.303 591.145ZM165.494 530.41C165.582 534.765 164.562 539.071 162.53 542.924C160.498 546.776 157.52 550.048 153.877 552.433C153.827 552.461 153.776 552.486 153.727 552.516C150.588 554.446 146.975 555.467 143.29 555.464C139.606 555.462 135.995 554.437 132.858 552.502C132.838 552.491 132.817 552.481 132.796 552.469C128.937 550.059 125.844 546.6 123.879 542.495C123.835 542.402 123.791 542.31 123.744 542.219C122.001 538.527 121.103 534.493 121.115 530.41C121.115 516.596 131.069 505.357 143.304 505.357C155.54 505.357 165.494 516.596 165.494 530.41ZM339.476 630.402C332.985 630.402 327.705 624.256 327.705 616.701C327.704 615.348 327.878 614 328.221 612.692C335.562 614.903 343.39 614.903 350.73 612.692C351.074 614.001 351.247 615.348 351.246 616.701C351.246 624.256 345.966 630.402 339.476 630.402ZM361.666 569.667C361.754 574.022 360.734 578.329 358.702 582.181C356.67 586.034 353.692 589.306 350.048 591.691C349.999 591.718 349.95 591.743 349.901 591.771C346.763 593.702 343.151 594.723 339.467 594.721C335.783 594.72 332.172 593.696 329.036 591.762C329.007 591.745 328.976 591.731 328.947 591.714C325.292 589.333 322.303 586.059 320.263 582.202C318.223 578.344 317.199 574.03 317.287 569.667C317.287 555.853 327.242 544.614 339.477 544.614C351.712 544.614 361.666 555.853 361.666 569.667ZM454.563 243.832H413.868C394.256 214.566 380.648 181.695 373.831 147.126L402.609 118.331C406.958 164.431 425.06 208.157 454.563 243.832ZM357.383 343.707L330.851 317.16C333.732 307.903 337.025 298.718 340.721 289.792C344.419 280.861 348.58 272.037 353.081 263.46H390.602C375.507 288.359 364.304 315.42 357.383 343.707ZM136.072 302.313C130.506 288.882 123.929 275.894 116.396 263.46H153.917C158.417 272.035 162.58 280.86 166.279 289.794C169.975 298.722 173.268 307.907 176.148 317.161L149.617 343.707C146.157 329.586 141.628 315.748 136.072 302.313ZM149.617 163.583L176.148 190.13C173.268 199.383 169.976 208.567 166.279 217.497C162.581 226.43 158.418 235.255 153.917 243.832H116.396C123.929 231.398 130.507 218.409 136.072 204.977C141.629 191.542 146.157 177.704 149.617 163.583ZM322.595 225.007C325.221 231.349 328.075 237.635 331.093 243.832H277.181L315.302 205.688C317.547 212.203 319.97 218.666 322.595 225.007ZM315.303 301.603L277.182 263.46H331.093C328.075 269.657 325.222 275.942 322.598 282.281C319.974 288.617 317.549 295.081 315.303 301.603ZM184.402 282.282C181.778 275.942 178.924 269.657 175.906 263.46H229.818L191.696 301.604C189.45 295.083 187.026 288.619 184.402 282.282ZM191.696 205.687L229.819 243.832H175.906C178.924 237.634 181.778 231.348 184.402 225.008C187.026 218.67 189.451 212.206 191.696 205.687ZM263.308 176.007C269.502 179.027 275.785 181.883 282.122 184.51C288.459 187.136 294.918 189.561 301.43 191.807L263.308 229.951V176.007ZM243.691 229.95L205.57 191.807C212.085 189.559 218.545 187.134 224.878 184.508C231.215 181.882 237.497 179.026 243.691 176.007L243.691 229.95ZM243.691 277.341V331.284C237.492 328.261 231.209 325.405 224.877 322.781C218.541 320.156 212.082 317.731 205.569 315.484L243.691 277.341ZM263.308 277.339L301.431 315.484C294.917 317.731 288.457 320.156 282.119 322.783C275.784 325.408 269.502 328.263 263.308 331.283V277.339ZM316.978 176.25C307.738 173.37 298.559 170.076 289.629 166.376C280.7 162.674 271.881 158.509 263.308 154.006V116.464C275.734 124.001 288.715 130.582 302.139 136.15C315.566 141.71 329.396 146.241 343.51 149.703L316.978 176.25ZM243.691 154.006C235.12 158.509 226.301 162.673 217.371 166.374C208.447 170.073 199.269 173.368 190.021 176.25L163.49 149.703C177.603 146.24 191.433 141.709 204.86 136.15C218.283 130.582 231.264 124.001 243.691 116.464V154.006ZM190.02 331.042C199.264 333.922 208.442 337.217 217.371 340.917C226.29 344.612 235.109 348.776 243.691 353.285V390.828C218.807 375.722 191.76 364.512 163.489 357.588L190.02 331.042ZM263.308 353.284C271.88 348.781 280.699 344.617 289.625 340.917C298.556 337.217 307.736 333.921 316.979 331.041L343.51 357.588C315.239 364.513 288.193 375.723 263.308 390.828L263.308 353.284ZM353.082 243.831C348.582 235.257 344.419 226.433 340.719 217.497C337.02 208.56 333.727 199.376 330.85 190.131L357.382 163.584C364.303 191.871 375.507 218.933 390.604 243.832L353.082 243.831ZM388.736 104.451L359.959 133.245C342.727 129.841 325.874 124.74 309.646 118.016C293.419 111.29 277.898 102.973 263.308 93.1875V52.4672C298.962 81.9877 342.663 100.1 388.736 104.451ZM243.691 52.4672V93.1874C229.101 102.973 213.58 111.289 197.353 118.015C181.125 124.739 164.272 129.84 147.041 133.244L118.264 104.451C164.336 100.099 208.037 81.9875 243.691 52.4672ZM104.391 118.331L133.167 147.124C129.766 164.366 124.668 181.228 117.949 197.466C111.225 213.702 102.912 229.233 93.1325 243.832H52.4362C81.9403 208.158 100.042 164.431 104.391 118.331ZM52.4362 263.46H93.1321C102.912 278.059 111.225 293.589 117.949 309.825C124.668 326.062 129.766 342.925 133.167 360.166L104.391 388.959C100.042 342.86 81.9401 299.134 52.4362 263.46ZM118.264 402.84L147.04 374.047C181.59 380.866 214.442 394.482 243.691 414.105V454.824C208.037 425.303 164.337 407.191 118.264 402.84ZM336.661 413.922C336.566 413.95 336.474 413.982 336.381 414.013C309.743 423.052 284.979 436.883 263.308 454.824V414.105C292.557 394.481 325.41 380.865 359.96 374.047L388.736 402.84C371.01 404.522 353.537 408.241 336.661 413.922ZM402.609 388.959L373.831 360.165C380.647 325.597 394.255 292.726 413.865 263.46H454.563C425.06 299.134 406.958 342.86 402.609 388.959Z" fill="#272A33"/>
</svg>
